<svg width="40" height="40" viewBox="0 0 40 40" fill="none" xmlns="http://www.w3.org/2000/svg">
<path d="M33.8617 6.92579C31.3122 5.75599 28.5783 4.89413 25.7198 4.40051C25.6678 4.39098 25.6158 4.41479 25.589 4.46241C25.2374 5.08776 24.8479 5.9036 24.5752 6.54483C21.5007 6.08455 18.442 6.08455 15.4305 6.54483C15.1577 5.88934 14.7541 5.08776 14.401 4.46241C14.3741 4.41638 14.3221 4.39257 14.2701 4.40051C11.4132 4.89255 8.67927 5.75441 6.12823 6.92579C6.10614 6.93531 6.08721 6.9512 6.07465 6.97182C0.888986 14.7191 -0.531584 22.2759 0.1653 29.7391C0.168453 29.7756 0.18895 29.8105 0.21733 29.8327C3.63868 32.3453 6.95285 33.8706 10.2055 34.8817C10.2575 34.8976 10.3127 34.8785 10.3458 34.8357C11.1152 33.7849 11.8011 32.6771 12.3891 31.512C12.4238 31.4438 12.3907 31.3628 12.3198 31.3358C11.2319 30.9231 10.196 30.42 9.19955 29.8486C9.12073 29.8026 9.11442 29.6898 9.18693 29.6359C9.39662 29.4787 9.60637 29.3153 9.80659 29.1502C9.84282 29.12 9.8933 29.1137 9.93589 29.1327C16.4821 32.1215 23.5692 32.1215 30.0383 29.1327C30.0808 29.1121 30.1313 29.1185 30.1691 29.1486C30.3694 29.3137 30.5791 29.4787 30.7904 29.6359C30.8629 29.6898 30.8581 29.8026 30.7793 29.8486C29.7829 30.4311 28.747 30.9231 27.6575 31.3342C27.5866 31.3612 27.555 31.4438 27.5897 31.512C28.1904 32.6754 28.8763 33.7833 29.6315 34.8341C29.663 34.8785 29.7198 34.8976 29.7718 34.8817C33.0402 33.8706 36.3544 32.3453 39.7757 29.8327C39.8057 29.8105 39.8246 29.7772 39.8278 29.7407C40.6618 21.1124 38.4308 13.6176 33.9137 6.9734C33.9026 6.9512 33.8838 6.93531 33.8617 6.92579ZM13.3667 25.1948C11.3958 25.1948 9.77189 23.3854 9.77189 21.1633C9.77189 18.9411 11.3643 17.1317 13.3667 17.1317C15.3848 17.1317 16.993 18.957 16.9615 21.1633C16.9615 23.3854 15.369 25.1948 13.3667 25.1948ZM26.6579 25.1948C24.6871 25.1948 23.0632 23.3854 23.0632 21.1633C23.0632 18.9411 24.6556 17.1317 26.6579 17.1317C28.6761 17.1317 30.2842 18.957 30.2527 21.1633C30.2527 23.3854 28.6761 25.1948 26.6579 25.1948Z" fill="#5568FF"/>
</svg>
