<svg width="20" height="20" viewBox="0 0 20 20" fill="none" xmlns="http://www.w3.org/2000/svg">
<path d="M18.5371 10.2044C18.5371 9.60019 18.4881 8.99271 18.3836 8.39828H9.99963V11.8211H14.8007C14.6015 12.925 13.9614 13.9016 13.024 14.5221V16.743H15.8883C17.5704 15.1949 18.5371 12.9087 18.5371 10.2044Z" fill="#4285F4"/>
<path d="M9.99956 18.8889C12.3968 18.8889 14.4185 18.1017 15.8915 16.7431L13.0272 14.5222C12.2303 15.0643 11.2015 15.3713 10.0028 15.3713C7.68393 15.3713 5.71776 13.8069 5.0123 11.7036H2.05652V13.9931C3.56543 16.9946 6.63879 18.8889 9.99956 18.8889Z" fill="#34A853"/>
<path d="M5.00912 11.7036C4.63679 10.5997 4.63679 9.40429 5.00912 8.30037V6.01086H2.05661C0.79591 8.52246 0.79591 11.4815 2.05661 13.9931L5.00912 11.7036Z" fill="#FBBC04"/>
<path d="M9.99956 4.62925C11.2668 4.60966 12.4916 5.0865 13.4093 5.9618L15.947 3.42408C14.3401 1.91516 12.2074 1.08559 9.99956 1.11171C6.63879 1.11171 3.56543 3.00602 2.05652 6.01079L5.00903 8.30029C5.71123 6.19369 7.68066 4.62925 9.99956 4.62925Z" fill="#EA4335"/>
</svg>
