<svg width="40" height="40" viewBox="0 0 40 40" fill="none" xmlns="http://www.w3.org/2000/svg">
<path d="M28.0838 0H11.9162C5.34559 0 0 5.34559 0 11.9162V28.0838C0 34.6544 5.34559 40 11.9162 40H28.0838C34.6544 40 40 34.6544 40 28.0838V11.9162C39.9999 5.34559 34.6543 0 28.0838 0ZM35.976 28.0838C35.976 32.4425 32.4425 35.976 28.0838 35.976H11.9162C7.5575 35.976 4.024 32.4425 4.024 28.0838V11.9162C4.024 7.55743 7.5575 4.024 11.9162 4.024H28.0838C32.4425 4.024 35.976 7.55743 35.976 11.9162V28.0838Z" fill="url(#paint0_linear_373_7712)"/>
<path d="M20 9.65234C14.2955 9.65234 9.65454 14.2933 9.65454 19.9977C9.65454 25.7021 14.2955 30.3431 20 30.3431C25.7044 30.3431 30.3454 25.7022 30.3454 19.9977C30.3454 14.2932 25.7044 9.65234 20 9.65234ZM20 26.3192C16.5087 26.3192 13.6785 23.489 13.6785 19.9978C13.6785 16.5065 16.5088 13.6763 20 13.6763C23.4912 13.6763 26.3214 16.5065 26.3214 19.9978C26.3214 23.4889 23.4911 26.3192 20 26.3192Z" fill="url(#paint1_linear_373_7712)"/>
<path d="M30.3652 12.2119C31.7343 12.2119 32.8442 11.102 32.8442 9.73288C32.8442 8.36378 31.7343 7.25391 30.3652 7.25391C28.9961 7.25391 27.8862 8.36378 27.8862 9.73288C27.8862 11.102 28.9961 12.2119 30.3652 12.2119Z" fill="url(#paint2_linear_373_7712)"/>
<defs>
<linearGradient id="paint0_linear_373_7712" x1="20" y1="39.8836" x2="20" y2="0.310687" gradientUnits="userSpaceOnUse">
<stop stop-color="#FAC131"/>
<stop offset="0.3" stop-color="#FF6E6F"/>
<stop offset="0.6" stop-color="#FC35A1"/>
<stop offset="1" stop-color="#943CF5"/>
</linearGradient>
<linearGradient id="paint1_linear_373_7712" x1="20" y1="39.8813" x2="20" y2="0.308456" gradientUnits="userSpaceOnUse">
<stop stop-color="#E09B3D"/>
<stop offset="0.3" stop-color="#C74C4D"/>
<stop offset="0.6" stop-color="#F03B9E"/>
<stop offset="1" stop-color="#7024C4"/>
</linearGradient>
<linearGradient id="paint2_linear_373_7712" x1="30.3652" y1="39.8842" x2="30.3652" y2="0.311323" gradientUnits="userSpaceOnUse">
<stop stop-color="#FFBB5E"/>
<stop offset="0.3" stop-color="#E15354"/>
<stop offset="0.6" stop-color="#C21975"/>
<stop offset="1" stop-color="#812BE0"/>
</linearGradient>
</defs>
</svg>
